<?xml version="1.0" encoding="UTF-8" standalone="no"?>
<!-- Created with Inkscape (http://www.inkscape.org/) -->

<svg
   width="3840"
   height="2160"
   viewBox="0 0 3840 2160"
   version="1.1"
   id="svg1"
   xml:space="preserve"
   inkscape:version="1.4 (e7c3feb100, 2024-10-09)"
   sodipodi:docname="sicher.svg"
   inkscape:export-filename="sicher1080.png"
   inkscape:export-xdpi="48"
   inkscape:export-ydpi="48"
   xmlns:inkscape="http://www.inkscape.org/namespaces/inkscape"
   xmlns:sodipodi="http://sodipodi.sourceforge.net/DTD/sodipodi-0.dtd"
   xmlns:xlink="http://www.w3.org/1999/xlink"
   xmlns="http://www.w3.org/2000/svg"
   xmlns:svg="http://www.w3.org/2000/svg"><sodipodi:namedview
     id="namedview1"
     pagecolor="#505050"
     bordercolor="#ffffff"
     borderopacity="1"
     inkscape:showpageshadow="0"
     inkscape:pageopacity="0"
     inkscape:pagecheckerboard="1"
     inkscape:deskcolor="#505050"
     inkscape:document-units="px"
     inkscape:zoom="0.17310049"
     inkscape:cx="1580.0071"
     inkscape:cy="1259.3841"
     inkscape:window-width="1920"
     inkscape:window-height="1011"
     inkscape:window-x="0"
     inkscape:window-y="0"
     inkscape:window-maximized="1"
     inkscape:current-layer="g10" /><defs
     id="defs1"><clipPath
       clipPathUnits="userSpaceOnUse"
       id="clipPath18"><path
         d="m 8.504,8.5045 0,99.212 204.094,0 0,-99.212"
         id="path20"
         inkscape:connector-curvature="0" /></clipPath><clipPath
       clipPathUnits="userSpaceOnUse"
       id="clipPath26"><path
         d="m 109.3359,99.9732 66.0772,0 c 14.1045,0 25.5388,-11.2626 25.5388,-25.1553 l 0,-16.9645 c 0,-13.8928 -11.4343,-25.1553 -25.5388,-25.1553 l -132.1547,0 c -14.1046,0 -25.5388,11.2625 -25.5388,25.1553 l 0,16.9645 c 0,13.8927 11.4342,25.1553 25.5388,25.1553"
         id="path28"
         inkscape:connector-curvature="0"
         style="clip-rule:evenodd" /></clipPath><linearGradient
       id="linearGradient877"
       x1="182.64"
       x2="188.93"
       y1="128.46"
       y2="37.452"
       gradientTransform="translate(1166.3 -456.5)"
       gradientUnits="userSpaceOnUse"><stop
         stop-color="#ffba23"
         offset="0"
         id="stop2" /><stop
         stop-color="#fe9a06"
         offset=".61844"
         id="stop4" /><stop
         stop-color="#d0e6fb"
         offset="1"
         id="stop6" /></linearGradient><linearGradient
       id="linearGradient885"
       x1="130.78"
       x2="141.19"
       y1="57.604"
       y2="-17.656"
       gradientTransform="matrix(3.7795 0 0 3.7795 4408.1 -1725.4)"
       gradientUnits="userSpaceOnUse"><stop
         stop-color="#e0f1f9"
         offset="0"
         id="stop9" /><stop
         stop-color="#b1d0fe"
         offset="1"
         id="stop11" /></linearGradient><linearGradient
       id="linearGradient898"
       x1="1317.6"
       x2="-550.49"
       y1="194.9"
       y2="-387.51"
       gradientTransform="translate(1267.3 330.01)"
       gradientUnits="userSpaceOnUse"><stop
         stop-color="#0776b9"
         offset="0"
         id="stop14" /><stop
         stop-color="#1ab4f0"
         offset="1"
         id="stop16" /></linearGradient><linearGradient
       id="linearGradient906"
       x1="379.44"
       x2="48.459"
       y1="46.942"
       y2="-107.12"
       gradientTransform="matrix(3.7795 0 0 3.7795 1267.3 330.01)"
       gradientUnits="userSpaceOnUse"><stop
         stop-color="#0d73bb"
         offset="0"
         id="stop19" /><stop
         stop-color="#11adea"
         offset="1"
         id="stop21" /></linearGradient><linearGradient
       id="linearGradient914"
       x1="352.32"
       x2="118.9"
       y1="-62.434"
       y2="-66.848"
       gradientTransform="translate(1166.3 -456.5)"
       gradientUnits="userSpaceOnUse"><stop
         stop-color="#0f70b7"
         offset="0"
         id="stop24" /><stop
         stop-color="#1092d1"
         offset="1"
         id="stop26" /></linearGradient><linearGradient
       id="linearGradient922"
       x1="-9.9041"
       x2="19.694"
       y1="216.11"
       y2="140.66"
       gradientTransform="translate(1166.3 -456.5)"
       gradientUnits="userSpaceOnUse"><stop
         stop-color="#fd0168"
         offset="0"
         id="stop29" /><stop
         stop-color="#fe0731"
         offset="1"
         id="stop31" /></linearGradient><linearGradient
       id="linearGradient965"
       x1="-43.428"
       x2="-26.875"
       y1="140.2"
       y2="-49.675"
       gradientTransform="translate(1166.3 -456.5)"
       gradientUnits="userSpaceOnUse"><stop
         stop-color="#ff604b"
         offset="0"
         id="stop34" /><stop
         stop-color="#fd0c67"
         offset="1"
         id="stop36" /></linearGradient><linearGradient
       id="linearGradient983"
       x1="3553.8"
       x2="3818.9"
       y1="-441.58"
       y2="-1203.5"
       gradientUnits="userSpaceOnUse"><stop
         stop-color="#493b76"
         offset="0"
         id="stop39" /><stop
         stop-color="#fd0263"
         offset="1"
         id="stop41" /></linearGradient><linearGradient
       id="linearGradient987"
       x1="166.31"
       x2="127.54"
       y1="215.82"
       y2="111.19"
       gradientTransform="translate(1166.3 -456.5)"
       gradientUnits="userSpaceOnUse"><stop
         stop-color="#fe3235"
         offset="0"
         id="stop44" /><stop
         stop-color="#ff5637"
         stop-opacity="0"
         offset="1"
         id="stop46" /></linearGradient><linearGradient
       id="linearGradient886"
       x1="1476"
       x2="1397.3"
       y1="-245.55"
       y2="-201.12"
       gradientUnits="userSpaceOnUse"><stop
         stop-color="#fe3235"
         offset="0"
         id="stop49" /><stop
         stop-color="#fe3235"
         stop-opacity="0"
         offset="1"
         id="stop51" /></linearGradient><filter
       id="filter951"
       x="-0.03749707"
       y="-0.06666654"
       width="1.0749941"
       height="1.1333331"
       color-interpolation-filters="sRGB"><feGaussianBlur
         stdDeviation="10.583338"
         id="feGaussianBlur54" /></filter><filter
       id="filter1038"
       x="-0.11713946"
       y="-0.19729273"
       width="1.2342789"
       height="1.3945855"
       color-interpolation-filters="sRGB"><feGaussianBlur
         stdDeviation="16.529843"
         id="feGaussianBlur57" /></filter><mask
       id="mask1097"
       maskUnits="userSpaceOnUse"><rect
         x="1000.3"
         y="-453.86"
         width="338.67"
         height="201.08"
         rx="25.319"
         ry="25.319"
         fill="#ffffff"
         stroke-width="0"
         style="paint-order:stroke fill markers"
         id="rect60" /></mask><linearGradient
       inkscape:collect="always"
       xlink:href="#linearGradient965"
       id="linearGradient1077"
       gradientUnits="userSpaceOnUse"
       gradientTransform="translate(1166.3,-456.5)"
       x1="-43.428"
       y1="140.2"
       x2="-26.875"
       y2="-49.675" /><linearGradient
       inkscape:collect="always"
       xlink:href="#linearGradient987"
       id="linearGradient1079"
       gradientUnits="userSpaceOnUse"
       gradientTransform="translate(1166.3,-456.5)"
       x1="166.31"
       y1="215.82"
       x2="127.54"
       y2="111.19" /><linearGradient
       inkscape:collect="always"
       xlink:href="#linearGradient922"
       id="linearGradient1081"
       gradientUnits="userSpaceOnUse"
       gradientTransform="translate(1166.3,-456.5)"
       x1="-9.9041"
       y1="216.11"
       x2="19.694"
       y2="140.66" /><linearGradient
       inkscape:collect="always"
       xlink:href="#linearGradient898"
       id="linearGradient1083"
       gradientUnits="userSpaceOnUse"
       gradientTransform="translate(1267.3,330.01)"
       x1="1317.6"
       y1="194.9"
       x2="-550.49"
       y2="-387.51" /><linearGradient
       inkscape:collect="always"
       xlink:href="#linearGradient885"
       id="linearGradient1085"
       gradientUnits="userSpaceOnUse"
       gradientTransform="matrix(3.7795,0,0,3.7795,4408.1,-1725.4)"
       x1="130.78"
       y1="57.604"
       x2="141.19"
       y2="-17.656" /><linearGradient
       inkscape:collect="always"
       xlink:href="#linearGradient906"
       id="linearGradient1087"
       gradientUnits="userSpaceOnUse"
       gradientTransform="matrix(3.7795,0,0,3.7795,1267.3,330.01)"
       x1="379.44"
       y1="46.942"
       x2="48.459"
       y2="-107.12" /><linearGradient
       inkscape:collect="always"
       xlink:href="#linearGradient914"
       id="linearGradient1089"
       gradientUnits="userSpaceOnUse"
       gradientTransform="translate(1166.3,-456.5)"
       x1="352.32"
       y1="-62.434"
       x2="118.9"
       y2="-66.848" /><linearGradient
       inkscape:collect="always"
       xlink:href="#linearGradient877"
       id="linearGradient1091"
       gradientUnits="userSpaceOnUse"
       gradientTransform="translate(1166.3,-456.5)"
       x1="182.64"
       y1="128.46"
       x2="188.93"
       y2="37.452" /><linearGradient
       inkscape:collect="always"
       xlink:href="#linearGradient983"
       id="linearGradient1093"
       gradientUnits="userSpaceOnUse"
       x1="3553.8"
       y1="-441.58"
       x2="3818.9"
       y2="-1203.5" /><linearGradient
       inkscape:collect="always"
       xlink:href="#linearGradient886"
       id="linearGradient1095"
       gradientUnits="userSpaceOnUse"
       x1="1476"
       y1="-245.55"
       x2="1397.3"
       y2="-201.12" /><clipPath
       clipPathUnits="userSpaceOnUse"
       id="clipPath1371"><rect
         style="opacity:0.15;fill:#000000;stroke-width:2.16542;stroke-linecap:round;stroke-linejoin:round;paint-order:stroke fill markers"
         id="rect1373"
         width="677.38654"
         height="285.75067"
         x="830.99146"
         y="-496.19577" /></clipPath><clipPath
       clipPathUnits="userSpaceOnUse"
       id="clipPath1824"><rect
         x="1026.7985"
         y="-437.9873"
         width="285.77243"
         height="169.33372"
         rx="21.879253"
         ry="21.877584"
         fill="#000000"
         opacity="0.25"
         stroke-width="0"
         style="paint-order:stroke fill markers"
         id="rect1826" /></clipPath><linearGradient
       inkscape:collect="always"
       xlink:href="#linearGradient965"
       id="linearGradient1"
       gradientUnits="userSpaceOnUse"
       gradientTransform="translate(1166.3,-456.5)"
       x1="-43.428"
       y1="140.2"
       x2="-26.875"
       y2="-49.675" /><linearGradient
       inkscape:collect="always"
       xlink:href="#linearGradient987"
       id="linearGradient2"
       gradientUnits="userSpaceOnUse"
       gradientTransform="translate(1166.3,-456.5)"
       x1="166.31"
       y1="215.82"
       x2="127.54"
       y2="111.19" /><linearGradient
       inkscape:collect="always"
       xlink:href="#linearGradient922"
       id="linearGradient3"
       gradientUnits="userSpaceOnUse"
       gradientTransform="translate(1166.3,-456.5)"
       x1="-9.9041"
       y1="216.11"
       x2="19.694"
       y2="140.66" /><linearGradient
       inkscape:collect="always"
       xlink:href="#linearGradient898"
       id="linearGradient4"
       gradientUnits="userSpaceOnUse"
       gradientTransform="translate(1267.3,330.01)"
       x1="1317.6"
       y1="194.9"
       x2="-550.49"
       y2="-387.51" /><linearGradient
       inkscape:collect="always"
       xlink:href="#linearGradient885"
       id="linearGradient5"
       gradientUnits="userSpaceOnUse"
       gradientTransform="matrix(3.7795,0,0,3.7795,4408.1,-1725.4)"
       x1="130.78"
       y1="57.604"
       x2="141.19"
       y2="-17.656" /><linearGradient
       inkscape:collect="always"
       xlink:href="#linearGradient906"
       id="linearGradient6"
       gradientUnits="userSpaceOnUse"
       gradientTransform="matrix(3.7795,0,0,3.7795,1267.3,330.01)"
       x1="379.44"
       y1="46.942"
       x2="48.459"
       y2="-107.12" /><linearGradient
       inkscape:collect="always"
       xlink:href="#linearGradient914"
       id="linearGradient7"
       gradientUnits="userSpaceOnUse"
       gradientTransform="translate(1166.3,-456.5)"
       x1="352.32"
       y1="-62.434"
       x2="118.9"
       y2="-66.848" /><linearGradient
       inkscape:collect="always"
       xlink:href="#linearGradient877"
       id="linearGradient8"
       gradientUnits="userSpaceOnUse"
       gradientTransform="translate(1166.3,-456.5)"
       x1="182.64"
       y1="128.46"
       x2="188.93"
       y2="37.452" /><linearGradient
       inkscape:collect="always"
       xlink:href="#linearGradient983"
       id="linearGradient9"
       gradientUnits="userSpaceOnUse"
       x1="3553.8"
       y1="-441.58"
       x2="3818.9"
       y2="-1203.5" /><linearGradient
       inkscape:collect="always"
       xlink:href="#linearGradient886"
       id="linearGradient10"
       gradientUnits="userSpaceOnUse"
       x1="1476"
       y1="-245.55"
       x2="1397.3"
       y2="-201.12" /></defs><g
     inkscape:groupmode="layer"
     id="layer2"
     inkscape:label="References"
     style="display:none"><g
       id="g1"
       transform="matrix(5.6692913,0,0,5.6692913,-84.90737,-756.10115)"
       style="display:inline"><g
         id="whitesur-2k"
         transform="translate(14.985251,133.36873)"><g
           transform="matrix(0.99992146,0,0,0.99999768,-830.93473,543.81874)"
           id="g2724"><rect
             x="831"
             y="-543.82001"
             width="677.33002"
             height="381"
             ry="0.080329999"
             fill="url(#linearGradient965)"
             stroke-linecap="round"
             stroke-linejoin="round"
             stroke-width="0.29282"
             style="fill:url(#linearGradient1);paint-order:stroke fill markers"
             id="rect65" /><rect
             x="831"
             y="-543.82001"
             width="677.33002"
             height="381"
             ry="0.080329999"
             fill="url(#linearGradient987)"
             stroke-linecap="round"
             stroke-linejoin="round"
             stroke-width="0.29282"
             style="display:inline;fill:url(#linearGradient2);paint-order:stroke fill markers"
             id="rect67" /><path
             d="m 831,-476.36 v 313.42 c 0,0.0663 0.0536,0.11935 0.11988,0.11935 h 677.09002 c 0.066,0 0.1199,-0.0531 0.1199,-0.11935 v -81.087 c -7.3958,-4.9154 -16.821,-9.4105 -28.73,-12.375 -41.892,-10.428 -59.805,14.251 -86.238,5.4131 -26.433,-8.8379 -73.685,-15.642 -128.76,-19.928 -55.076,-4.2862 -63.176,-19.999 -123,-49.078 -59.827,-29.079 -153.23002,-51.571 -223.65002,-88.306 -44.008,-22.957 -72.083,-50.574 -86.953,-68.06 z"
             fill="url(#linearGradient922)"
             id="path69"
             style="fill:url(#linearGradient3)" /><path
             transform="matrix(0.26458,0,0,0.26458,831,-543.82)"
             d="m 643.35,0 c 4.4798,2.0341 182.41,82.968 266.61,144.25 20.311,14.782 40.694,30.758 60.535,46.842 0.0378,0.004 0.0375,1.4e-4 0.0488,0.008 494.93,215.17 833.18,316.22 1589.5,400.37 V 0.43 c -0.01,-0.23288 -0.1932,-0.41734 -0.4257,-0.42969 H 643.41813 Z"
             fill="url(#linearGradient898)"
             id="path71"
             style="display:inline;fill:url(#linearGradient4)" /><path
             transform="scale(0.26458)"
             d="m 4111.1,-1864.3 c -1.3444,0.2578 23.713,19.906 23.713,19.906 0,0 80.148,75.846 128.12,101.81 100.96,54.653 194.55,84.189 299.2,107.26 48.199,38.178 144.73,85.936 180.83,97.576 400.06,99.37 661.2,173.73 957.81,365.55 v -164.23 c -3.9595,-1.7972 -8.4944,-3.8504 -13.545,-6.123 5.0466,2.2707 9.584,4.3233 13.545,6.1211 v -209.28 c -20.952,-12.17 -51.449,-28.241 -76.848,-35.004 -43.324,-11.536 -164.59,-20.034 -325.03,-37.262 -160.44,-17.228 -223,-86.187 -273.9,-103.52 -50.899,-17.328 -84.668,-3.1122 -134.5,-31.008 -49.834,-27.896 -106.86,-45.646 -176,-45.646 -69.141,0 -216.5,18.009 -340.85,-0.9493 -124.35,-18.958 -184.32,-39.172 -262.32,-65.176 -0.098,-0.034 -0.1694,-0.047 -0.2148,-0.039 z m 1192,378.46 c 7.11,1.5057 13.758,2.9253 19.383,4.1504 3.2484,0.7076 6.6014,1.4838 10.051,2.3262 -3.449,-0.8423 -6.8026,-1.6187 -10.051,-2.3262 -5.532,-1.205 -12.52,-2.6901 -19.383,-4.1504 z"
             fill="url(#linearGradient885)"
             id="path73"
             style="fill:url(#linearGradient5)" /><path
             transform="matrix(0.26458,0,0,0.26458,831,-543.82)"
             d="m 923.11,0 c 8.1247,5.0782 83.98,50.523 231.85,73.447 156.74,24.3 118.34,5.3138 210.23,22.279 91.882,16.965 163.11,68.987 259.77,89.33 96.66,20.343 151.64,8.8399 247.4,34.232 95.76,25.393 135.98,69.539 276.79,108.21 126.64,34.781 340.53,94.278 410.85,127.46 V 0.448 c -0.01,-0.24581 -0.2055,-0.44336 -0.4511,-0.44336 z"
             fill="url(#linearGradient906)"
             id="path75"
             style="fill:url(#linearGradient6)" /><path
             d="m 1295.8,-543.82 c 8.6497,5.1649 21.301,11.964 39.881,20.804 57.089,27.163 93.518,36.334 121.44,40.02 20.302,2.6807 41.257,6.8388 51.257,8.923 v -69.628 c 0,-0.0663 -0.054,-0.11989 -0.1199,-0.11989 z"
             fill="url(#linearGradient914)"
             id="path77"
             style="fill:url(#linearGradient7)" /><path
             d="m 1201.1,-434.04 c 17.262,6.5032 30.879,30.051 45.831,34.139 19.906,5.4422 36.29,6.0404 57.02,16.6 20.731,10.56 39.033,29.502 60.738,33.708 21.705,4.2064 31.462,2.3177 42.952,10.898 8.0383,6.0027 13.193,19.259 26.76,24.726 20.42,8.2276 45.499,1.4352 58.657,2.2216 8.483,0.50701 13.043,1.1792 15.237,1.5958 v -43.453 c -16.762,-7.6084 -72.578,-32.441 -100.1,-38.435 -32.589,-7.0987 -156.59,-31.743 -187.55,-38.194 -4.8135,-1.003 -14.66,-2.6716 -19.555,-3.8075 z"
             fill="url(#linearGradient877)"
             id="path79"
             style="display:inline;fill:url(#linearGradient8)" /><path
             transform="scale(0.26458)"
             d="m 3140.8,-1497.9 v 882.18 c 0,0.16819 0.1365,0.30468 0.3047,0.30468 h 2459 c -19.362,-33.265 -59.938,-78.491 -131.93,-118.48 -108.75,-60.409 -279.88,-107.68 -559.57,-148.09 -279.69,-40.406 -521.37,-110 -773.31,-158.48998 -251.94,-48.487 -585.81,-199.64 -733.98,-284.03 -142.6,-81.216 -252.38,-167 -260.52,-173.4 z"
             fill="url(#linearGradient983)"
             id="path81"
             style="display:inline;fill:url(#linearGradient9)" /><path
             d="m 831,-476.36 v 313.42 c 0,0.0663 0.0536,0.11935 0.11988,0.11935 h 677.09002 c 0.066,0 0.1199,-0.0531 0.1199,-0.11935 v -81.087 c -7.3958,-4.9154 -16.821,-9.4105 -28.73,-12.375 -41.892,-10.428 -59.805,14.251 -86.238,5.4131 -26.433,-8.8379 -73.685,-15.642 -128.76,-19.928 -55.076,-4.2862 -63.176,-19.999 -123,-49.078 -59.827,-29.079 -153.23002,-51.571 -223.65002,-88.306 -44.008,-22.957 -72.083,-50.574 -86.953,-68.06 z"
             fill="url(#linearGradient886)"
             opacity="0.75"
             id="path83"
             style="fill:url(#linearGradient10)" /></g><rect
           x="169.33"
           y="97.082001"
           width="338.67001"
           height="201.08"
           rx="25.319"
           ry="25.319"
           fill="#000000"
           filter="url(#filter1038)"
           opacity="0.25"
           stroke-width="0"
           style="display:none;opacity:0.15;paint-order:stroke fill markers"
           id="rect87"
           transform="scale(0.99992146,0.99999768)" /><g
           transform="matrix(0.99992146,0,0,0.99999768,-830.93473,543.81874)"
           filter="url(#filter951)"
           mask="url(#mask1097)"
           id="g109"
           inkscape:label="g109"
           style="display:none"><rect
             x="831"
             y="-543.82001"
             width="677.33002"
             height="381"
             ry="0.080329999"
             fill="url(#linearGradient965)"
             stroke-linecap="round"
             stroke-linejoin="round"
             stroke-width="0.29282"
             style="fill:url(#linearGradient1077);paint-order:stroke fill markers"
             id="rect89" /><rect
             x="831"
             y="-543.82001"
             width="677.33002"
             height="381"
             ry="0.080329999"
             fill="url(#linearGradient987)"
             stroke-linecap="round"
             stroke-linejoin="round"
             stroke-width="0.29282"
             style="fill:url(#linearGradient1079);paint-order:stroke fill markers"
             id="rect91" /><path
             d="m 831,-476.36 v 313.42 c 0,0.0663 0.0536,0.11935 0.11988,0.11935 h 677.09002 c 0.066,0 0.1199,-0.0531 0.1199,-0.11935 v -81.087 c -7.3958,-4.9154 -16.821,-9.4105 -28.73,-12.375 -41.892,-10.428 -59.805,14.251 -86.238,5.4131 -26.433,-8.8379 -73.685,-15.642 -128.76,-19.928 -55.076,-4.2862 -63.176,-19.999 -123,-49.078 -59.827,-29.079 -153.23002,-51.571 -223.65002,-88.306 -44.008,-22.957 -72.083,-50.574 -86.953,-68.06 z"
             fill="url(#linearGradient922)"
             id="path93"
             style="fill:url(#linearGradient1081)" /><path
             transform="matrix(0.26458,0,0,0.26458,831,-543.82)"
             d="m 643.35,0 c 4.4798,2.0341 182.41,82.968 266.61,144.25 20.311,14.782 40.694,30.758 60.535,46.842 0.0378,0.004 0.0375,1.4e-4 0.0488,0.008 494.93,215.17 833.18,316.22 1589.5,400.37 V 0.43 c -0.01,-0.23288 -0.1932,-0.41734 -0.4257,-0.42969 H 643.41813 Z"
             fill="url(#linearGradient898)"
             id="path95"
             style="fill:url(#linearGradient1083)" /><path
             transform="scale(0.26458)"
             d="m 4111.1,-1864.3 c -1.3444,0.2578 23.713,19.906 23.713,19.906 0,0 80.148,75.846 128.12,101.81 100.96,54.653 194.55,84.189 299.2,107.26 48.199,38.178 144.73,85.936 180.83,97.576 400.06,99.37 661.2,173.73 957.81,365.55 v -164.23 c -3.9595,-1.7972 -8.4944,-3.8504 -13.545,-6.123 5.0466,2.2707 9.584,4.3233 13.545,6.1211 v -209.28 c -20.952,-12.17 -51.449,-28.241 -76.848,-35.004 -43.324,-11.536 -164.59,-20.034 -325.03,-37.262 -160.44,-17.228 -223,-86.187 -273.9,-103.52 -50.899,-17.328 -84.668,-3.1122 -134.5,-31.008 -49.834,-27.896 -106.86,-45.646 -176,-45.646 -69.141,0 -216.5,18.009 -340.85,-0.9493 -124.35,-18.958 -184.32,-39.172 -262.32,-65.176 -0.098,-0.034 -0.1694,-0.047 -0.2148,-0.039 z m 1192,378.46 c 7.11,1.5057 13.758,2.9253 19.383,4.1504 3.2484,0.7076 6.6014,1.4838 10.051,2.3262 -3.449,-0.8423 -6.8026,-1.6187 -10.051,-2.3262 -5.532,-1.205 -12.52,-2.6901 -19.383,-4.1504 z"
             fill="url(#linearGradient885)"
             id="path97"
             style="fill:url(#linearGradient1085)" /><path
             transform="matrix(0.26458,0,0,0.26458,831,-543.82)"
             d="m 923.11,0 c 8.1247,5.0782 83.98,50.523 231.85,73.447 156.74,24.3 118.34,5.3138 210.23,22.279 91.882,16.965 163.11,68.987 259.77,89.33 96.66,20.343 151.64,8.8399 247.4,34.232 95.76,25.393 135.98,69.539 276.79,108.21 126.64,34.781 340.53,94.278 410.85,127.46 V 0.448 c -0.01,-0.24581 -0.2055,-0.44336 -0.4511,-0.44336 z"
             fill="url(#linearGradient906)"
             id="path99"
             style="fill:url(#linearGradient1087)" /><path
             d="m 1295.8,-543.82 c 8.6497,5.1649 21.301,11.964 39.881,20.804 57.089,27.163 93.518,36.334 121.44,40.02 20.302,2.6807 41.257,6.8388 51.257,8.923 v -69.628 c 0,-0.0663 -0.054,-0.11989 -0.1199,-0.11989 z"
             fill="url(#linearGradient914)"
             id="path101"
             style="fill:url(#linearGradient1089)" /><path
             d="m 1201.1,-434.04 c 17.262,6.5032 30.879,30.051 45.831,34.139 19.906,5.4422 36.29,6.0404 57.02,16.6 20.731,10.56 39.033,29.502 60.738,33.708 21.705,4.2064 31.462,2.3177 42.952,10.898 8.0383,6.0027 13.193,19.259 26.76,24.726 20.42,8.2276 45.499,1.4352 58.657,2.2216 8.483,0.50701 13.043,1.1792 15.237,1.5958 v -43.453 c -16.762,-7.6084 -72.578,-32.441 -100.1,-38.435 -32.589,-7.0987 -156.59,-31.743 -187.55,-38.194 -4.8135,-1.003 -14.66,-2.6716 -19.555,-3.8075 z"
             fill="url(#linearGradient877)"
             id="path103"
             style="fill:url(#linearGradient1091)" /><path
             transform="scale(0.26458)"
             d="m 3140.8,-1497.9 v 882.18 c 0,0.16819 0.1365,0.30468 0.3047,0.30468 h 2459 c -19.362,-33.265 -59.938,-78.491 -131.93,-118.48 -108.75,-60.409 -279.88,-107.68 -559.57,-148.09 -279.69,-40.406 -521.37,-110 -773.31,-158.48998 -251.94,-48.487 -585.81,-199.64 -733.98,-284.03 -142.6,-81.216 -252.38,-167 -260.52,-173.4 z"
             fill="url(#linearGradient983)"
             id="path105"
             style="display:inline;fill:url(#linearGradient1093)" /><path
             d="m 831,-476.36 v 313.42 c 0,0.0663 0.0536,0.11935 0.11988,0.11935 h 677.09002 c 0.066,0 0.1199,-0.0531 0.1199,-0.11935 v -81.087 c -7.3958,-4.9154 -16.821,-9.4105 -28.73,-12.375 -41.892,-10.428 -59.805,14.251 -86.238,5.4131 -26.433,-8.8379 -73.685,-15.642 -128.76,-19.928 -55.076,-4.2862 -63.176,-19.999 -123,-49.078 -59.827,-29.079 -153.23002,-51.571 -223.65002,-88.306 -44.008,-22.957 -72.083,-50.574 -86.953,-68.06 z"
             fill="url(#linearGradient886)"
             opacity="0.75"
             id="path107"
             style="display:inline;fill:url(#linearGradient1095)" /></g><rect
           x="169.3167"
           y="89.957794"
           width="338.6434"
           height="201.07953"
           rx="25.317011"
           ry="25.318941"
           fill="#000000"
           opacity="0.25"
           stroke-width="0"
           style="display:inline;paint-order:stroke fill markers"
           id="rect111" /></g></g><image
       width="3840"
       height="2160"
       preserveAspectRatio="none"
       xlink:href="4k/background-stylish.jpg"
       id="image1"
       x="0"
       y="0"
       style="display:inline" /><image
       width="3840"
       height="2160"
       preserveAspectRatio="none"
       xlink:href="4k/background-tela.jpg"
       id="image1-9"
       x="0"
       y="0"
       style="display:inline" /><image
       width="3840"
       height="2160"
       preserveAspectRatio="none"
       xlink:href="4k/background-vimix.jpg"
       id="image1-93"
       x="0"
       y="0"
       style="display:inline" /><image
       width="3840"
       height="2160"
       preserveAspectRatio="none"
       xlink:href="4k/background-whitesur.jpg"
       id="image1-6"
       x="0"
       y="0"
       style="display:inline" /></g><g
     inkscape:groupmode="layer"
     id="layer3"
     inkscape:label="Background"><rect
       style="fill:#151515;fill-opacity:1"
       id="rect10"
       width="3840"
       height="2160"
       x="0"
       y="0" /></g><g
     inkscape:label="Sicher"
     inkscape:groupmode="layer"
     id="layer1"
     style="display:inline"><g
       id="g10"
       inkscape:groupmode="layer"
       inkscape:label="dieses_system_ist_sicher"
       transform="matrix(5.121199,0,0,-5.121199,2751.2433,2203.5532)"
       style="display:inline"><path
         d="m 8.504,8.5045 h 204.094 v 99.212 H 8.504 Z"
         style="display:none;fill:#000000;fill-opacity:1;fill-rule:nonzero;stroke:none"
         id="path12"
         inkscape:connector-curvature="0" /><g
         clip-path="url(#clipPath26)"
         id="g24"><g
           transform="scale(1.00759,0.99246)"
           id="g30"><path
             inkscape:connector-curvature="0"
             id="path32"
             style="fill:none;stroke:#eeeeee;stroke-width:13.2196;stroke-linecap:butt;stroke-linejoin:miter;stroke-miterlimit:10;stroke-dasharray:none;stroke-opacity:1"
             d="m 108.512,100.7323 h 65.5792 c 13.9983,0 25.3463,-11.3481 25.3463,-25.3463 V 58.2927 c 0,-13.9983 -11.348,-25.3463 -25.3463,-25.3463 H 42.9324 c -13.9983,0 -25.3463,11.348 -25.3463,25.3463 V 75.386 c 0,13.9982 11.348,25.3463 25.3463,25.3463 z" /></g></g><path
         inkscape:connector-curvature="0"
         id="path36"
         style="display:inline;fill:#151515;fill-opacity:1;fill-rule:nonzero;stroke:none"
         d="m 144.7781,10.7159 h 61.5034 v 31.9393 h -61.5034 z" /><path
         inkscape:connector-curvature="0"
         id="path38"
         style="fill:#000000;fill-opacity:0;fill-rule:evenodd;stroke:none"
         d="m 204.1057,75.1442 c 0,-15.4497 -12.7156,-27.9744 -28.4009,-27.9744 -15.6853,0 -28.4009,12.5247 -28.4009,27.9744 0,15.4498 12.7156,27.9745 28.4009,27.9745 15.6853,0 28.4009,-12.5247 28.4009,-27.9745" /><path
         inkscape:connector-curvature="0"
         id="path40"
         style="fill:#a0a0a0;fill-opacity:1;fill-rule:evenodd;stroke:none"
         d="m 150.6522,75.5316 h 0.001 c 0.0876,6.4501 2.727,12.6182 7.3644,17.1859 4.7166,4.6458 11.1141,7.2557 17.7842,7.2557 6.6703,0 13.0679,-2.6099 17.7845,-7.2557 4.637,-4.5677 7.2767,-10.7358 7.3643,-17.1859 h 0.003 v -25.992 h -7.023 v 25.992 h 0.013 c -0.0869,4.6199 -1.988,9.0328 -5.3113,12.3063 -3.403,3.3515 -8.0183,5.2345 -12.8305,5.2345 -4.8122,0 -9.4279,-1.883 -12.8305,-5.2345 -3.3493,-3.2991 -5.2544,-7.7556 -5.3133,-12.4152 h -0.0201 V 49.5396 h -6.9863 v 25.8831" /><path
         inkscape:connector-curvature="0"
         id="path42"
         style="fill:#44bb56;fill-opacity:1;fill-rule:nonzero;stroke:none"
         d="m 147.832,16.0918 h 55.943 v 42.9719 h -55.943 z" /><path
         inkscape:connector-curvature="0"
         id="path44"
         style="fill:#dedede;fill-opacity:1;fill-rule:evenodd;stroke:none"
         d="m 32.025,85.0712 h 2.9021 c 2.4469,0 3.2537,-0.9742 3.2537,-3.0763 v -2.8074 c 0,-2.1025 -0.8068,-3.0894 -3.2537,-3.0894 H 32.025 c -0.2474,0 -0.3906,0.141 -0.3906,0.3844 v 8.1915 c 0,0.2561 0.1302,0.3844 0.3906,0.3972 z m 2.2384,-6.7683 h 0.7026 c 0.6247,0 0.9371,0.1023 0.9371,0.8715 v 2.8205 c 0,0.7947 -0.3124,0.8714 -0.9371,0.8714 h -0.7026 c -0.2474,0 -0.3906,-0.1282 -0.3906,-0.3844 v -3.7946 c 0,-0.2434 0.1432,-0.3844 0.3906,-0.3844 z m 6.9097,6.7683 c 0.2601,0 0.3903,-0.1279 0.3903,-0.3844 v -8.2043 c 0,-0.2434 -0.1302,-0.3844 -0.3903,-0.3844 h -1.4315 c -0.2474,0 -0.3906,0.141 -0.3906,0.3844 v 8.2043 c 0,0.2565 0.1432,0.3844 0.3906,0.3844 z m 7.5478,0 c 0.2604,0 0.3906,-0.1279 0.3906,-0.3844 v -1.4357 c 0,-0.2437 -0.1302,-0.3847 -0.3906,-0.3847 h -3.1495 c -0.2471,0 -0.3903,-0.1283 -0.3903,-0.3845 v -0.4103 c 0,-0.2434 0.1432,-0.3844 0.3903,-0.3844 h 2.0173 c 0.2604,0 0.3903,-0.1282 0.3903,-0.3847 v -1.4357 c 0,-0.2437 -0.1299,-0.3847 -0.3903,-0.3847 h -2.0173 c -0.2471,0 -0.3903,-0.128 -0.3903,-0.3845 v -0.4103 c 0,-0.2434 0.1432,-0.3844 0.3903,-0.3844 h 3.1495 c 0.2604,0 0.3906,-0.1282 0.3906,-0.3847 v -1.4357 c 0,-0.2565 -0.1302,-0.3844 -0.3906,-0.3844 h -5.4658 c -0.2475,0 -0.3907,0.141 -0.3907,0.3844 v 8.2043 c 0,0.2565 0.1432,0.3844 0.3907,0.3844 z m 7.1572,-2.8585 -1.4839,-0.3205 c -0.26,-0.0512 -0.3902,0.064 -0.4292,0.3205 -0.0912,0.5254 -0.5208,0.859 -1.1322,0.859 -0.5078,0 -0.8202,-0.2949 -0.7679,-0.5898 0.1822,-1 4.2947,-0.9744 4.2947,-3.9228 0,-0.3845 -0.4425,-2.6536 -3.5268,-2.6536 -2.7333,0 -3.3187,1.7693 -3.3839,2.769 -0.013,0.2309 0.1042,0.372 0.3383,0.4231 l 1.4709,0.3205 c 0.26,0.0511 0.4032,-0.064 0.4292,-0.3333 0.0523,-0.6153 0.5338,-0.9741 1.1455,-0.9741 0.6377,0 1.1062,0.3716 1.028,0.7176 -0.2474,1.0897 -4.1645,0.8463 -4.1645,3.7947 -0.013,0.3844 0.2211,2.6535 3.1365,2.6535 2.681,0 3.3054,-1.7177 3.3836,-2.6407 0.013,-0.2309 -0.1042,-0.372 -0.3383,-0.4231 z m 7.274,2.8585 c 0.2605,0 0.3907,-0.1279 0.3907,-0.3844 v -1.4357 c 0,-0.2437 -0.1302,-0.3847 -0.3907,-0.3847 h -3.1495 c -0.2471,0 -0.3902,-0.1283 -0.3902,-0.3845 v -0.4103 c 0,-0.2434 0.1431,-0.3844 0.3902,-0.3844 h 2.0173 c 0.2605,0 0.3903,-0.1282 0.3903,-0.3847 v -1.4357 c 0,-0.2437 -0.1298,-0.3847 -0.3903,-0.3847 h -2.0173 c -0.2471,0 -0.3902,-0.128 -0.3902,-0.3845 v -0.4103 c 0,-0.2434 0.1431,-0.3844 0.3902,-0.3844 h 3.1495 c 0.2605,0 0.3907,-0.1282 0.3907,-0.3847 v -1.4357 c 0,-0.2565 -0.1302,-0.3844 -0.3907,-0.3844 H 57.686 c -0.2471,0 -0.3903,0.141 -0.3903,0.3844 v 8.2043 c 0,0.2565 0.1432,0.3844 0.3903,0.3844 z m 7.1572,-2.8585 -1.4838,-0.3205 c -0.2601,-0.0512 -0.3903,0.064 -0.4293,0.3205 -0.0912,0.5254 -0.5208,0.859 -1.1325,0.859 -0.5075,0 -0.8199,-0.2949 -0.7676,-0.5898 0.1822,-1 4.2947,-0.9744 4.2947,-3.9228 0,-0.3845 -0.4425,-2.6536 -3.5271,-2.6536 -2.7329,0 -3.3187,1.7693 -3.3836,2.769 -0.013,0.2309 0.1042,0.372 0.3383,0.4231 l 1.4709,0.3205 c 0.2601,0.0511 0.4032,-0.064 0.4292,-0.3333 0.0523,-0.6153 0.5338,-0.9741 1.1452,-0.9741 0.638,0 1.1066,0.3716 1.0283,0.7176 -0.2474,1.0897 -4.1645,0.8463 -4.1645,3.7947 -0.013,0.3844 0.2211,2.6535 3.1362,2.6535 2.681,0 3.3057,-1.7177 3.3839,-2.6407 0.013,-0.2309 -0.1042,-0.372 -0.3383,-0.4231 z m 11.347,0 -1.4835,-0.3205 c -0.2604,-0.0512 -0.3906,0.064 -0.4296,0.3205 -0.0909,0.5254 -0.5205,0.859 -1.1322,0.859 -0.5075,0 -0.8198,-0.2949 -0.7679,-0.5898 0.1822,-1 4.2947,-0.9744 4.2947,-3.9228 0,-0.3845 -0.4422,-2.6536 -3.5268,-2.6536 -2.7329,0 -3.3187,1.7693 -3.3836,2.769 -0.013,0.2309 0.1039,0.372 0.3383,0.4231 l 1.4705,0.3205 c 0.2605,0.0511 0.4036,-0.064 0.4296,-0.3333 0.052,-0.6153 0.5335,-0.9741 1.1452,-0.9741 0.6377,0 1.1062,0.3716 1.0283,0.7176 -0.2474,1.0897 -4.1648,0.8463 -4.1648,3.7947 -0.013,0.3844 0.2214,2.6535 3.1365,2.6535 2.681,0 3.3057,-1.7177 3.3836,-2.6407 0.0133,-0.2309 -0.1039,-0.372 -0.3383,-0.4231 z m 3.1878,2.8585 c 0.2211,0 0.3643,-0.0896 0.4426,-0.2949 l 0.963,-2.3842 c 0.0519,-0.1155 0.1299,-0.1155 0.1821,0 l 0.9631,2.3842 c 0.0779,0.2053 0.2211,0.2949 0.4425,0.2949 h 1.8608 c 0.2994,0 0.4296,-0.1795 0.2994,-0.4487 L 87.6683,79.4948 C 87.642,79.4437 87.642,79.3925 87.642,79.3413 v -2.8588 c 0,-0.2434 -0.1299,-0.3844 -0.3903,-0.3844 h -1.8222 c -0.2471,0 -0.3903,0.141 -0.3903,0.3844 v 2.8588 c 0,0.0512 0,0.1024 -0.0259,0.1535 l -2.3427,5.1277 c -0.1302,0.2692 0,0.4487 0.2994,0.4487 z m 11.5558,-2.8585 -1.4835,-0.3205 c -0.2605,-0.0512 -0.3907,0.064 -0.4296,0.3205 -0.0913,0.5254 -0.5205,0.859 -1.1322,0.859 -0.5075,0 -0.8199,-0.2949 -0.7679,-0.5898 0.1821,-1 4.2947,-0.9744 4.2947,-3.9228 0,-0.3845 -0.4426,-2.6536 -3.5268,-2.6536 -2.733,0 -3.3187,1.7693 -3.384,2.769 -0.013,0.2309 0.1043,0.372 0.3387,0.4231 l 1.4705,0.3205 c 0.2604,0.0511 0.4033,-0.064 0.4296,-0.3333 0.0519,-0.6153 0.5335,-0.9741 1.1452,-0.9741 0.6377,0 1.1062,0.3716 1.028,0.7176 -0.2471,1.0897 -4.1645,0.8463 -4.1645,3.7947 -0.013,0.3844 0.2211,2.6535 3.1365,2.6535 2.681,0 3.3057,-1.7177 3.3836,-2.6407 0.013,-0.2309 -0.1039,-0.372 -0.3383,-0.4231 z m 3.3699,0.2692 c 0,0.2562 -0.1302,0.3844 -0.3906,0.3844 h -1.8218 c -0.2475,0 -0.3906,0.1411 -0.3906,0.3848 v 1.4356 c 0,0.2565 0.1431,0.3845 0.3906,0.3845 h 6.6633 c 0.2604,0 0.3903,-0.128 0.3903,-0.3845 v -1.4356 c 0,-0.2437 -0.1299,-0.3848 -0.3903,-0.3848 h -1.8222 c -0.2471,0 -0.3903,-0.1282 -0.3903,-0.3844 v -5.9994 c 0,-0.2434 -0.1302,-0.3844 -0.3906,-0.3844 h -1.4575 c -0.2471,0 -0.3903,0.141 -0.3903,0.3844 z m 11.4779,2.5893 c 0.2601,0 0.3903,-0.1279 0.3903,-0.3844 v -1.4357 c 0,-0.2437 -0.1302,-0.3847 -0.3903,-0.3847 h -3.1495 c -0.2475,0 -0.3906,-0.1283 -0.3906,-0.3845 v -0.4103 c 0,-0.2434 0.1431,-0.3844 0.3906,-0.3844 h 2.017 c 0.2604,0 0.3906,-0.1282 0.3906,-0.3847 v -1.4357 c 0,-0.2437 -0.1302,-0.3847 -0.3906,-0.3847 h -2.017 c -0.2475,0 -0.3906,-0.128 -0.3906,-0.3845 v -0.4103 c 0,-0.2434 0.1431,-0.3844 0.3906,-0.3844 h 3.1495 c 0.2601,0 0.3903,-0.1282 0.3903,-0.3847 v -1.4357 c 0,-0.2565 -0.1302,-0.3844 -0.3903,-0.3844 h -5.4662 c -0.2474,0 -0.3906,0.141 -0.3906,0.3844 v 8.2043 c 0,0.2565 0.1432,0.3844 0.3906,0.3844 z m 4.4758,0 c 0.2344,0 0.3643,-0.128 0.4166,-0.3461 l 0.9241,-3.7303 c 0.0259,-0.1283 0.1299,-0.1283 0.1562,0 l 0.9237,3.7303 c 0.0523,0.2181 0.1825,0.3461 0.4166,0.3461 h 2.694 c 0.2604,0 0.3906,-0.1279 0.3906,-0.3844 v -8.2043 c 0,-0.2434 -0.1302,-0.3844 -0.3906,-0.3844 h -1.4576 c -0.2474,0 -0.3906,0.141 -0.3906,0.3844 v 5.0509 c 0,0.0895 -0.1169,0.1023 -0.1429,0.0128 l -1.2623,-5.1149 c -0.0523,-0.2181 -0.1955,-0.3332 -0.4296,-0.3332 h -0.8592 c -0.2341,0 -0.3773,0.1151 -0.4292,0.3332 l -1.2624,5.1149 c -0.0263,0.0895 -0.1432,0.0767 -0.1432,-0.0128 v -5.0509 c 0,-0.2434 -0.1302,-0.3844 -0.3906,-0.3844 h -1.4575 c -0.2604,0 -0.3903,0.141 -0.3903,0.3844 v 8.2043 c 0,0.2564 0.1299,0.3844 0.3903,0.3844 z m 12.9477,0 c 0.2601,0 0.3903,-0.1279 0.3903,-0.3844 v -8.2043 c 0,-0.2434 -0.1302,-0.3844 -0.3903,-0.3844 h -1.4315 c -0.2475,0 -0.3906,0.141 -0.3906,0.3844 v 8.2043 c 0,0.2565 0.1431,0.3844 0.3906,0.3844 z m 7.717,-2.8585 -1.4835,-0.3205 c -0.2605,-0.0512 -0.3907,0.064 -0.4296,0.3205 -0.0909,0.5254 -0.5205,0.859 -1.1322,0.859 -0.5075,0 -0.8199,-0.2949 -0.7679,-0.5898 0.1821,-1 4.2947,-0.9744 4.2947,-3.9228 0,-0.3845 -0.4422,-2.6536 -3.5268,-2.6536 -2.7329,0 -3.3187,1.7693 -3.3836,2.769 -0.0133,0.2309 0.1039,0.372 0.3383,0.4231 l 1.4705,0.3205 c 0.2604,0.0511 0.4036,-0.064 0.4296,-0.3333 0.0519,-0.6153 0.5335,-0.9741 1.1452,-0.9741 0.6377,0 1.1062,0.3716 1.0279,0.7176 -0.247,1.0897 -4.1644,0.8463 -4.1644,3.7947 -0.013,0.3844 0.2214,2.6535 3.1365,2.6535 2.681,0 3.3057,-1.7177 3.3836,-2.6407 0.013,-0.2309 -0.1039,-0.372 -0.3383,-0.4231 z m 3.3699,0.2692 c 0,0.2562 -0.1302,0.3844 -0.3906,0.3844 h -1.8218 c -0.2474,0 -0.3906,0.1411 -0.3906,0.3848 v 1.4356 c 0,0.2565 0.1432,0.3845 0.3906,0.3845 h 6.6633 c 0.2604,0 0.3906,-0.128 0.3906,-0.3845 v -1.4356 c 0,-0.2437 -0.1302,-0.3848 -0.3906,-0.3848 h -1.8222 c -0.247,0 -0.3902,-0.1282 -0.3902,-0.3844 v -5.9994 c 0,-0.2434 -0.1302,-0.3844 -0.3903,-0.3844 h -1.4579 c -0.2471,0 -0.3903,0.141 -0.3903,0.3844" /><path
         inkscape:connector-curvature="0"
         id="path46"
         style="fill:#dedede;fill-opacity:1;fill-rule:evenodd;stroke:none"
         d="m 21.0903,21.938 v -0.8321 c 0,-0.1489 -0.0756,-0.223 -0.2265,-0.223 h -1.8941 c -0.0453,0 -0.0752,-0.0223 -0.0752,-0.0745 v -0.1486 c 0,-0.1413 0.0829,-0.223 0.2264,-0.223 h 0.2338 c 1.3959,0 1.8787,-1.1073 1.8787,-1.806 0,-0.7806 -0.4828,-1.8063 -1.8787,-1.8063 -1.5545,0 -1.8412,0.9962 -1.8865,1.5311 -0.0077,0.1339 0.0603,0.2155 0.1961,0.2454 l 0.8602,0.186 c 0.1512,0.0295 0.2264,-0.0374 0.2491,-0.186 0.0529,-0.3047 0.2264,-0.4979 0.5811,-0.4979 0.3622,0 0.5131,0.2824 0.4755,0.5277 -0.0606,0.4012 -0.3547,0.5721 -0.9358,0.5721 h -1.0715 c -0.1436,0 -0.2265,0.082 -0.2265,0.223 v 2.5121 c 0,0.1414 0.0829,0.2231 0.2265,0.2231 h 3.0409 c 0.1509,0 0.2265,-0.0741 0.2265,-0.2231 z m 3.8091,0.721 h 0.3697 c 0.1661,0 0.2417,-0.104 0.1811,-0.2601 l -2.2484,-6.0054 c -0.0453,-0.119 -0.1285,-0.1784 -0.2644,-0.1784 h -0.3696 c -0.1659,0 -0.2415,0.104 -0.1812,0.2601 l 2.2488,6.0057 c 0.0453,0.1187 0.1282,0.1781 0.264,0.1781 z m 5.394,-0.721 v -0.8321 c 0,-0.1489 -0.0756,-0.223 -0.2265,-0.223 h -1.8941 c -0.0453,0 -0.0752,-0.0223 -0.0752,-0.0745 v -0.1486 c 0,-0.1413 0.0829,-0.223 0.2264,-0.223 h 0.2338 c 1.3959,0 1.8788,-1.1073 1.8788,-1.806 0,-0.7806 -0.4829,-1.8063 -1.8788,-1.8063 -1.5545,0 -1.8412,0.9962 -1.8865,1.5311 -0.0076,0.1339 0.0603,0.2155 0.1962,0.2454 l 0.8601,0.186 c 0.1512,0.0295 0.2264,-0.0374 0.2491,-0.186 0.0529,-0.3047 0.2264,-0.4979 0.5811,-0.4979 0.3623,0 0.5131,0.2824 0.4755,0.5277 -0.0606,0.4012 -0.3546,0.5721 -0.9357,0.5721 H 27.026 c -0.1432,0 -0.2265,0.082 -0.2265,0.223 v 2.5121 c 0,0.1414 0.0833,0.2231 0.2265,0.2231 h 3.0409 c 0.1509,0 0.2265,-0.0741 0.2265,-0.2231 z m 6.8118,-1.4343 -0.8601,-0.1856 c -0.1512,-0.0299 -0.2265,0.037 -0.2491,0.1856 -0.0529,0.3047 -0.302,0.4979 -0.6567,0.4979 -0.294,0 -0.4752,-0.1709 -0.4452,-0.3418 0.1059,-0.5799 2.4902,-0.5648 2.4902,-2.2743 0,-0.2231 -0.2564,-1.5387 -2.045,-1.5387 -1.5844,0 -1.9241,1.0257 -1.9617,1.6056 -0.0077,0.1338 0.0603,0.2155 0.1961,0.2453 l 0.8525,0.1857 c 0.1512,0.0298 0.2341,-0.0371 0.2491,-0.1932 0.0303,-0.3569 0.3094,-0.5648 0.664,-0.5648 0.37,0 0.6414,0.2155 0.5961,0.4162 -0.1432,0.6317 -2.4146,0.4904 -2.4146,2.1999 -0.0073,0.223 0.1282,1.5387 1.8185,1.5387 1.5545,0 1.9168,-0.9962 1.9621,-1.5311 0.0076,-0.1339 -0.0603,-0.2155 -0.1962,-0.2454 z m 2.0663,0.1561 c 0,0.1486 -0.0756,0.2231 -0.2265,0.2231 h -1.0562 c -0.1436,0 -0.2265,0.0816 -0.2265,0.223 v 0.8322 c 0,0.1489 0.0829,0.223 0.2265,0.223 h 3.8634 c 0.1509,0 0.2261,-0.0741 0.2261,-0.223 v -0.8322 c 0,-0.1414 -0.0752,-0.223 -0.2261,-0.223 h -1.0566 c -0.1432,0 -0.2264,-0.0745 -0.2264,-0.2231 v -3.4784 c 0,-0.1414 -0.0753,-0.223 -0.2261,-0.223 h -0.8452 c -0.1435,0 -0.2264,0.0816 -0.2264,0.223 z m 6.7672,1.5013 c 0.1509,0 0.2265,-0.0741 0.2265,-0.2231 v -0.8321 c 0,-0.1414 -0.0756,-0.223 -0.2265,-0.223 h -1.8262 c -0.1431,0 -0.2264,-0.0745 -0.2264,-0.2231 V 20.422 c 0,-0.1413 0.0832,-0.223 0.2264,-0.223 h 1.1695 c 0.1512,0 0.2265,-0.0745 0.2265,-0.223 v -0.8325 c 0,-0.1411 -0.0753,-0.2231 -0.2265,-0.2231 h -1.1695 c -0.1431,0 -0.2264,-0.0741 -0.2264,-0.2227 v -0.2381 c 0,-0.141 0.0832,-0.2227 0.2264,-0.2227 h 1.8262 c 0.1509,0 0.2265,-0.0745 0.2265,-0.223 v -0.8325 c 0,-0.1486 -0.0756,-0.223 -0.2265,-0.223 h -3.1691 c -0.1436,0 -0.2265,0.0816 -0.2265,0.223 v 4.7566 c 0,0.149 0.0829,0.2231 0.2265,0.2231 z m 4.0959,-3.3371 0.7999,-1.4642 c 0.1059,-0.1932 -0.015,-0.4014 -0.2488,-0.4014 h -0.8604 c -0.0753,0 -0.1432,0.037 -0.1735,0.1039 l -0.7846,1.4941 c -0.0153,0.0223 -0.0379,0.037 -0.0606,0.037 h -0.3017 c -0.1359,0 -0.2341,-0.0964 -0.2341,-0.2302 v -1.1743 c 0,-0.1338 -0.0979,-0.2305 -0.2338,-0.2305 h -0.8451 c -0.1359,0 -0.2338,0.0967 -0.2338,0.2305 v 4.7419 c 0,0.1339 0.0979,0.2303 0.2338,0.2303 h 1.6527 c 1.343,0 1.8864,-0.5648 1.8864,-1.7837 0,-0.6914 -0.1738,-1.1745 -0.5737,-1.4569 -0.03,-0.0224 -0.0377,-0.0594 -0.0227,-0.0965 z m -1.2448,2.0589 h -0.3849 c -0.1359,0 -0.2341,-0.0968 -0.2341,-0.2306 v -0.5501 c 0,-0.1338 0.0982,-0.2302 0.2341,-0.2302 h 0.3849 c 0.362,0 0.5432,0.0446 0.5432,0.5054 0,0.4609 -0.1812,0.5055 -0.5432,0.5055 z m 3.9904,1.2782 c 0.1282,0 0.2111,-0.0518 0.2641,-0.1709 l 1.0263,-2.4751 c 0.0299,-0.0669 0.0902,-0.0518 0.0902,0.0223 v 2.4007 c 0,0.1489 0.0833,0.223 0.2265,0.223 h 0.8451 c 0.1509,0 0.2265,-0.0741 0.2265,-0.223 v -4.7567 c 0,-0.1414 -0.0756,-0.223 -0.2265,-0.223 h -1.1092 c -0.1282,0 -0.2111,0.0521 -0.2641,0.1708 l -1.0263,2.4751 c -0.03,0.0669 -0.0906,0.0522 -0.0906,-0.0223 v -2.4006 c 0,-0.1414 -0.0752,-0.223 -0.2261,-0.223 H 51.671 c -0.1436,0 -0.2265,0.0816 -0.2265,0.223 v 4.7567 c 0,0.1489 0.0829,0.223 0.2265,0.223 z m 6.9407,0 c 0.1509,0 0.2261,-0.0741 0.2261,-0.2231 v -0.8321 c 0,-0.1414 -0.0752,-0.223 -0.2261,-0.223 h -1.8262 c -0.1435,0 -0.2264,-0.0745 -0.2264,-0.2231 V 20.422 c 0,-0.1413 0.0829,-0.223 0.2264,-0.223 h 1.1695 c 0.1509,0 0.2265,-0.0745 0.2265,-0.223 v -0.8325 c 0,-0.1411 -0.0756,-0.2231 -0.2265,-0.2231 h -1.1695 c -0.1435,0 -0.2264,-0.0741 -0.2264,-0.2227 v -0.2381 c 0,-0.141 0.0829,-0.2227 0.2264,-0.2227 h 1.8262 c 0.1509,0 0.2261,-0.0745 0.2261,-0.223 v -0.8325 c 0,-0.1486 -0.0752,-0.223 -0.2261,-0.223 h -3.1695 c -0.1432,0 -0.2261,0.0816 -0.2261,0.223 v 4.7566 c 0,0.149 0.0829,0.2231 0.2261,0.2231" /><path
         inkscape:connector-curvature="0"
         id="path48"
         style="fill:#dedede;fill-opacity:1;fill-rule:evenodd;stroke:none"
         d="m 19.715,25.3962 h 1.7689 c 0.1678,0 0.2514,-0.0827 0.2514,-0.2477 v -0.9249 c 0,-0.1568 -0.0836,-0.2477 -0.2514,-0.2477 h -4.1665 c -0.2015,0 -0.2768,0.124 -0.1762,0.2972 l 2.2887,3.9639 c 0.0336,0.0577 0.0083,0.099 -0.0586,0.099 h -1.6014 c -0.1592,0 -0.2514,0.0909 -0.2514,0.2477 v 0.9249 c 0,0.165 0.0922,0.2477 0.2514,0.2477 h 4.041 c 0.2011,0 0.2767,-0.124 0.1761,-0.2972 l -2.3306,-3.9639 c -0.0337,-0.0577 -0.0084,-0.099 0.0586,-0.099 z m 6.5128,4.3601 c 0.1678,0 0.2517,-0.0827 0.2517,-0.2477 v -0.9249 c 0,-0.1568 -0.0839,-0.2477 -0.2517,-0.2477 h -2.0287 c -0.1591,0 -0.2514,-0.0826 -0.2514,-0.2476 V 27.824 c 0,-0.1568 0.0923,-0.2476 0.2514,-0.2476 h 1.2994 c 0.1678,0 0.2514,-0.0827 0.2514,-0.248 v -0.9246 c 0,-0.1571 -0.0836,-0.248 -0.2514,-0.248 h -1.2994 c -0.1591,0 -0.2514,-0.0823 -0.2514,-0.2476 v -0.2641 c 0,-0.1571 0.0923,-0.2479 0.2514,-0.2479 h 2.0287 c 0.1678,0 0.2517,-0.0827 0.2517,-0.2477 v -0.9249 c 0,-0.165 -0.0839,-0.2477 -0.2517,-0.2477 H 22.707 c -0.1595,0 -0.2518,0.0909 -0.2518,0.2477 v 5.285 c 0,0.165 0.0923,0.2477 0.2518,0.2477 z m 4.4255,-3.7078 0.8888,-1.6268 c 0.1172,-0.2145 -0.0166,-0.4458 -0.2767,-0.4458 h -0.9557 c -0.0839,0 -0.1592,0.0413 -0.1928,0.1155 l -0.8718,1.66 c -0.017,0.0246 -0.042,0.0413 -0.0673,0.0413 h -0.3353 c -0.1509,0 -0.2598,-0.1076 -0.2598,-0.2562 v -1.3047 c 0,-0.1486 -0.1088,-0.2559 -0.26,-0.2559 h -0.9388 c -0.1508,0 -0.26,0.1073 -0.26,0.2559 v 5.2686 c 0,0.1486 0.1092,0.2559 0.26,0.2559 h 1.8359 c 1.4921,0 2.0959,-0.6275 2.0959,-1.9818 0,-0.7679 -0.1928,-1.3048 -0.6371,-1.6187 -0.0336,-0.0246 -0.0419,-0.0659 -0.0253,-0.1073 z m -1.3832,2.2875 h -0.4276 c -0.1509,0 -0.2597,-0.1072 -0.2597,-0.2561 v -0.6111 c 0,-0.1486 0.1088,-0.2559 0.2597,-0.2559 h 0.4276 c 0.4026,0 0.6037,0.0496 0.6037,0.5616 0,0.512 -0.2011,0.5615 -0.6037,0.5615 z m 3.998,-0.2476 c 0,0.165 -0.084,0.2476 -0.2515,0.2476 h -1.1738 c -0.1592,0 -0.2514,0.0909 -0.2514,0.2477 v 0.9249 c 0,0.165 0.0922,0.2477 0.2514,0.2477 h 4.2924 c 0.1678,0 0.2514,-0.0827 0.2514,-0.2477 v -0.9249 c 0,-0.1568 -0.0836,-0.2477 -0.2514,-0.2477 h -1.1735 c -0.1595,0 -0.2518,-0.0826 -0.2518,-0.2476 v -3.8648 c 0,-0.1568 -0.0835,-0.2477 -0.2514,-0.2477 h -0.939 c -0.1592,0 -0.2514,0.0909 -0.2514,0.2477 z m 4.7942,1.6679 c 0.1678,0 0.2517,-0.0827 0.2517,-0.2477 v -5.285 c 0,-0.1568 -0.0839,-0.2477 -0.2517,-0.2477 h -0.9221 c -0.1592,0 -0.2514,0.0909 -0.2514,0.2477 v 5.285 c 0,0.165 0.0922,0.2477 0.2514,0.2477 z m 4.946,0 c 0.1675,0 0.2514,-0.0827 0.2514,-0.2477 v -0.9249 c 0,-0.1568 -0.0839,-0.2477 -0.2514,-0.2477 h -2.1129 c -0.1592,0 -0.2514,-0.0826 -0.2514,-0.2476 V 27.824 c 0,-0.1568 0.0922,-0.2476 0.2514,-0.2476 h 1.3833 c 0.1678,0 0.2518,-0.0827 0.2518,-0.248 v -0.9246 c 0,-0.1571 -0.084,-0.248 -0.2518,-0.248 h -1.3833 c -0.1592,0 -0.2514,-0.0823 -0.2514,-0.2476 v -1.6846 c 0,-0.1568 -0.0839,-0.2477 -0.2514,-0.2477 h -0.9893 c -0.1592,0 -0.2515,0.0909 -0.2515,0.2477 v 5.285 c 0,0.165 0.0923,0.2477 0.2515,0.2477 z m 1.9271,0 c 0.1678,0 0.2514,-0.0827 0.2514,-0.2477 v -5.285 c 0,-0.1568 -0.0836,-0.2477 -0.2514,-0.2477 h -0.9221 c -0.1595,0 -0.2514,0.0909 -0.2514,0.2477 v 5.285 c 0,0.165 0.0919,0.2477 0.2514,0.2477 z m 3.9733,-2.7169 1.8275,-2.7663 c 0.1176,-0.165 0.042,-0.2972 -0.1591,-0.2972 h -1.2574 c -0.1342,0 -0.2265,0.0495 -0.3021,0.1653 l -1.0393,1.5689 c -0.0336,0.0495 -0.0839,0.0495 -0.1175,0 l -0.3437,-0.4625 c -0.0253,-0.0332 -0.0336,-0.066 -0.0336,-0.1073 v -0.9167 c 0,-0.1568 -0.0839,-0.2477 -0.2514,-0.2477 h -0.9557 c -0.1592,0 -0.2514,0.0909 -0.2514,0.2477 v 5.285 c 0,0.165 0.0922,0.2477 0.2514,0.2477 h 0.9557 c 0.1675,0 0.2514,-0.0827 0.2514,-0.2477 v -1.66 c 0,-0.0823 0.0586,-0.099 0.1006,-0.0328 l 1.3163,1.7837 c 0.0753,0.1072 0.1675,0.1568 0.3017,0.1568 h 1.2408 c 0.2098,0 0.2767,-0.1322 0.1595,-0.3054 l -1.6937,-2.2957 c -0.0249,-0.0413 -0.0336,-0.0744 0,-0.1158 z m 6.404,-2.7827 c 0,-0.1817 -0.084,-0.2808 -0.2515,-0.2808 h -0.939 c -0.1592,0 -0.2514,0.0827 -0.2514,0.2477 v 0.7186 c 0,0.165 -0.0839,0.2476 -0.2514,0.2476 h -0.7213 c -0.1592,0 -0.2514,-0.0826 -0.2514,-0.2476 v -0.7186 c 0,-0.165 -0.084,-0.2477 -0.2515,-0.2477 h -0.939 c -0.1592,0 -0.2514,0.0991 -0.2514,0.2808 v 3.5014 c 0,1.0404 0.1675,2.1467 2.0539,2.1467 1.8865,0 2.054,-1.1063 2.054,-2.1467 z m -1.4419,3.5014 c 0,0.3962 -0.0586,0.5943 -0.6121,0.5943 -0.5534,0 -0.612,-0.1981 -0.612,-0.5943 v -0.9004 c 0,-0.1568 0.0922,-0.2476 0.2514,-0.2476 h 0.7213 c 0.1675,0.0082 0.2514,0.0908 0.2514,0.2561 z m 3.4109,0.3303 c 0,0.165 -0.0836,0.2476 -0.2514,0.2476 h -1.1739 c -0.1591,0 -0.2514,0.0909 -0.2514,0.2477 v 0.9249 c 0,0.165 0.0923,0.2477 0.2514,0.2477 h 4.2927 c 0.1675,0 0.2515,-0.0827 0.2515,-0.2477 v -0.9249 c 0,-0.1568 -0.084,-0.2477 -0.2515,-0.2477 h -1.1738 c -0.1592,0 -0.2514,-0.0826 -0.2514,-0.2476 v -3.8648 c 0,-0.1568 -0.0839,-0.2477 -0.2517,-0.2477 h -0.9388 c -0.1595,0 -0.2517,0.0909 -0.2517,0.2477" /><path
         inkscape:connector-curvature="0"
         id="path50"
         style="fill:#44bb56;fill-opacity:1;fill-rule:evenodd;stroke:none"
         d="m 70.8977,30.6963 2.2125,-4.4152 4.9467,-0.7081 -3.5794,-3.4368 0.8445,-4.8531 -4.4243,2.2914 -4.4249,-2.2911 0.8452,4.8531 -3.5791,3.4368 4.9467,0.7078" /><path
         inkscape:connector-curvature="0"
         id="path52"
         style="fill:#44bb56;fill-opacity:1;fill-rule:evenodd;stroke:none"
         d="m 87.0249,30.6963 2.2121,-4.4152 4.9471,-0.7081 -3.5798,-3.4368 0.8449,-4.8531 -4.4246,2.2914 -4.4246,-2.2911 0.8452,4.8531 -3.5791,3.4371 4.9467,0.7075" /><path
         inkscape:connector-curvature="0"
         id="path54"
         style="fill:#44bb56;fill-opacity:1;fill-rule:evenodd;stroke:none"
         d="m 103.3692,30.6963 2.2125,-4.4152 4.9467,-0.7081 -3.5798,-3.4368 0.8449,-4.8531 -4.4243,2.2914 -4.4249,-2.2911 0.8452,4.8531 -3.5791,3.4371 4.9467,0.7075" /><path
         inkscape:connector-curvature="0"
         id="path56"
         style="fill:#44bb56;fill-opacity:1;fill-rule:evenodd;stroke:none"
         d="m 119.574,30.6963 2.2124,-4.4152 4.9468,-0.7081 -3.5798,-3.4368 0.8448,-4.8531 -4.4245,2.2914 -4.4246,-2.2911 0.8451,4.8531 -3.579,3.4371 4.9467,0.7075" /><path
         inkscape:connector-curvature="0"
         id="path58"
         style="fill:#44bb56;fill-opacity:1;fill-rule:evenodd;stroke:none"
         d="m 135.7788,30.6963 2.2121,-4.4152 4.947,-0.7081 -3.5797,-3.4368 0.8448,-4.8531 -4.4246,2.2914 -4.4245,-2.2911 0.8451,4.8531 -3.5791,3.4371 4.9468,0.7075" /><path
         inkscape:connector-curvature="0"
         id="path60"
         style="display:inline;fill:#b4b4b4;fill-opacity:1;fill-rule:evenodd;stroke:none"
         d="m 49.1099,64.1736 -4.1685,-0.9003 c -0.7313,-0.144 -1.0969,0.18 -1.2065,0.9003 -0.2561,1.477 -1.4629,2.4131 -3.1815,2.4131 -1.4259,0 -2.3033,-0.8282 -2.1571,-1.6567 0.5118,-2.809 12.0666,-2.7372 12.0666,-11.0208 0,-1.0804 -1.2435,-7.4554 -9.9095,-7.4554 -7.6786,0 -9.324,4.9701 -9.5068,7.7795 -0.0366,0.6484 0.2927,1.0446 0.9507,1.1886 l 4.1319,0.9004 c 0.7313,0.144 1.1335,-0.1801 1.2068,-0.9364 0.1462,-1.7289 1.4992,-2.7372 3.2174,-2.7372 1.7919,0 3.1083,1.0443 2.8888,2.0169 -0.6946,3.0612 -11.7009,2.377 -11.7009,10.6606 -0.0363,1.0805 0.6217,7.4555 8.8121,7.4555 7.5325,0 9.2877,-4.8262 9.5072,-7.4194 0.0366,-0.6481 -0.2927,-1.0444 -0.9507,-1.1887 z m 9.1062,8.0318 c 0.7313,0 1.0969,-0.3602 1.0969,-1.0805 V 48.0747 c 0,-0.6845 -0.3656,-1.0807 -1.0969,-1.0807 h -4.0223 c -0.6947,0 -1.0969,0.3962 -1.0969,1.0807 v 23.0502 c 0,0.7203 0.4022,1.0805 1.0969,1.0805 z m 4.3883,-17.1075 v 9.0039 c 0,2.377 0.5121,8.752 9.1778,8.752 7.7885,0 8.9953,-5.1506 9.1415,-7.9238 0.0366,-0.5041 -0.2927,-0.9004 -0.8045,-1.0083 l -4.0586,-0.9003 c -0.7679,-0.144 -1.353,0.3601 -1.4629,1.1165 -0.1828,1.5846 -0.8408,2.521 -2.8155,2.521 -2.7056,0 -2.8885,-1.6928 -2.8885,-4.4661 v -5.1863 c 0,-2.7732 0.1829,-4.4661 2.8885,-4.4661 2.0113,1e-4 2.5597,0.9365 2.7792,2.5932 0.1095,0.7564 0.6946,1.2248 1.4259,1.0447 l 4.1319,-0.9004 c 0.5118,-0.1082 0.8411,-0.5044 0.8045,-1.0446 -0.1462,-2.7372 -1.353,-7.8875 -9.1415,-7.8875 -8.6657,0 -9.1778,6.3747 -9.1778,8.7521 z m 26.0359,17.1075 c 0.6946,0 1.0969,-0.3963 1.0969,-1.0805 V 62.121 c 0,-0.6845 0.4023,-1.0808 1.0969,-1.0808 h 3.5102 c 0.7316,0 1.0972,0.3963 1.0972,1.0808 v 9.0039 c 0,0.6843 0.4019,1.0805 1.0969,1.0805 h 4.0952 c 0.7313,0 1.0969,-0.3602 1.0969,-1.0805 V 48.0747 c 0,-0.6845 -0.3656,-1.0807 -1.0969,-1.0807 h -4.0952 c -0.695,0 -1.0969,0.3962 -1.0969,1.0807 v 5.6905 c 0,0.7203 -0.3656,1.0804 -1.0972,1.0804 h -3.5102 c -0.6946,0 -1.0969,-0.3601 -1.0969,-1.0804 v -5.6905 c 0,-0.6845 -0.3656,-1.0807 -1.0969,-1.0807 h -4.0952 c -0.695,0 -1.0973,0.3962 -1.0973,1.0807 v 23.0502 c 0,0.7203 0.366,1.0805 1.0973,1.0805 z m 33.2024,0 c 0.7316,0 1.0973,-0.3602 1.0973,-1.0805 v -4.0337 c 0,-0.6845 -0.3657,-1.0804 -1.0973,-1.0804 h -8.8485 c -0.6949,0 -1.0972,-0.3602 -1.0972,-1.0808 v -1.1523 c 0,-0.6845 0.4023,-1.0807 1.0972,-1.0807 h 5.6674 c 0.7316,0 1.0972,-0.3602 1.0972,-1.0804 v -4.0338 c 0,-0.6842 -0.3656,-1.0804 -1.0972,-1.0804 h -5.6674 c -0.6949,0 -1.0972,-0.3602 -1.0972,-1.0805 v -1.1526 c 0,-0.6842 0.4023,-1.0804 1.0972,-1.0804 h 8.8485 c 0.7316,0 1.0973,-0.3601 1.0973,-1.0804 v -4.0338 c 0,-0.7206 -0.3657,-1.0807 -1.0973,-1.0807 h -15.3573 c -0.6946,0 -1.0969,0.3962 -1.0969,1.0807 v 23.0502 c 0,0.7203 0.4023,1.0805 1.0969,1.0805 z m 19.308,-16.1711 3.8758,-7.0953 c 0.5118,-0.9364 -0.0729,-1.945 -1.2064,-1.945 h -4.1685 c -0.3657,0 -0.695,0.18 -0.8412,0.5044 l -3.8029,7.2393 c -0.0729,0.1079 -0.1828,0.1801 -0.2923,0.1801 h -1.4626 c -0.6583,0 -1.1335,-0.4684 -1.1335,-1.1165 v -5.6908 c 0,-0.6481 -0.4755,-1.1165 -1.1335,-1.1165 h -4.0953 c -0.6583,0 -1.1335,0.4684 -1.1335,1.1165 v 22.9784 c 0,0.6484 0.4752,1.1165 1.1335,1.1165 h 8.0077 c 6.5085,0 9.1412,-2.7372 9.1412,-8.6438 0,-3.3496 -0.8408,-5.6905 -2.7789,-7.0592 -0.1462,-0.108 -0.1828,-0.288 -0.1096,-0.4681 z m -6.0333,9.9765 h -1.8648 c -0.6583,0 -1.1335,-0.4684 -1.1335,-1.1165 v -2.6654 c 0,-0.6481 0.4752,-1.1165 1.1335,-1.1165 h 1.8648 c 1.7553,0 2.6328,0.2162 2.6328,2.4492 0,2.233 -0.8775,2.4492 -2.6327,2.4492" /><path
         inkscape:connector-curvature="0"
         id="path62"
         style="display:inline;fill:#44bb56;fill-opacity:1;fill-rule:evenodd;stroke:none"
         d="M 48.2224,65.1973 44.0539,64.297 c -0.7312,-0.144 -1.0969,0.18 -1.2068,0.9003 -0.2557,1.4767 -1.4625,2.4131 -3.1811,2.4131 -1.4259,0 -2.3034,-0.8282 -2.1572,-1.6567 0.5118,-2.8093 12.0663,-2.7372 12.0663,-11.0208 0,-1.0804 -1.2431,-7.4555 -9.9091,-7.4555 -7.6787,0 -9.324,4.9702 -9.5068,7.7796 -0.0367,0.6484 0.2923,1.0443 0.9507,1.1886 l 4.1318,0.9004 c 0.7313,0.144 1.1336,-0.1801 1.2065,-0.9365 0.1465,-1.7288 1.4992,-2.7371 3.2178,-2.7371 1.7919,0 3.1082,1.0443 2.8888,2.0169 -0.6947,3.0612 -11.701,2.377 -11.701,10.6606 -0.0366,1.0804 0.6217,7.4554 8.8122,7.4554 7.5324,0 9.2877,-4.8261 9.5071,-7.4193 0.0363,-0.6485 -0.2927,-1.0444 -0.9507,-1.1887 z m 9.1059,8.0318 c 0.7316,0 1.0972,-0.3602 1.0972,-1.0805 V 49.0981 c 0,-0.6842 -0.3656,-1.0804 -1.0972,-1.0804 h -4.022 c -0.6946,0 -1.0969,0.3962 -1.0969,1.0804 v 23.0505 c 0,0.7203 0.4023,1.0805 1.0969,1.0805 z m 4.3886,-17.1079 v 9.0043 c 0,2.377 0.5118,8.7517 9.1778,8.7517 7.7886,0 8.995,-5.1503 9.1415,-7.9235 0.0363,-0.5041 -0.2927,-0.9004 -0.8045,-1.0083 l -4.0589,-0.9003 c -0.7676,-0.1444 -1.3527,0.3601 -1.4625,1.1165 -0.1829,1.5845 -0.8409,2.521 -2.8156,2.521 -2.7056,0 -2.8884,-1.6928 -2.8884,-4.4661 v -5.1863 c 0,-2.7733 0.1828,-4.4661 2.8884,-4.4661 2.0114,0 2.5598,0.9365 2.7789,2.5932 0.1099,0.7564 0.695,1.2248 1.4263,1.0447 l 4.1318,-0.9007 c 0.5118,-0.1079 0.8408,-0.5041 0.8045,-1.0443 -0.1465,-2.7372 -1.3529,-7.8875 -9.1415,-7.8875 -8.666,0 -9.1778,6.3747 -9.1778,8.7517 z m 26.036,17.1079 c 0.6946,0 1.0969,-0.3963 1.0969,-1.0805 v -9.0042 c 0,-0.6842 0.4022,-1.0805 1.0969,-1.0805 h 3.5101 c 0.7313,0 1.0969,0.3963 1.0969,1.0805 v 9.0042 c 0,0.6842 0.4023,1.0805 1.0972,1.0805 h 4.0953 c 0.7313,0 1.0969,-0.3602 1.0969,-1.0805 V 49.0981 c 0,-0.6842 -0.3656,-1.0804 -1.0969,-1.0804 h -4.0953 c -0.6949,0 -1.0972,0.3962 -1.0972,1.0804 v 5.6908 c 0,0.7203 -0.3656,1.0804 -1.0969,1.0804 h -3.5101 c -0.6947,0 -1.0969,-0.3601 -1.0969,-1.0804 v -5.6908 c 0,-0.6842 -0.3657,-1.0804 -1.0969,-1.0804 h -4.0956 c -0.6947,0 -1.0969,0.3962 -1.0969,1.0804 v 23.0505 c 0,0.7203 0.3656,1.0805 1.0969,1.0805 z m 33.2024,0 c 0.7313,0 1.0969,-0.3602 1.0969,-1.0805 v -4.0337 c 0,-0.6846 -0.3656,-1.0808 -1.0969,-1.0808 h -8.8488 c -0.6947,0 -1.0969,-0.3601 -1.0969,-1.0804 v -1.1526 c 0,-0.6842 0.4023,-1.0804 1.0969,-1.0804 h 5.6676 c 0.7313,0 1.0969,-0.3602 1.0969,-1.0805 v -4.0337 c 0,-0.6842 -0.3656,-1.0804 -1.0969,-1.0804 h -5.6676 c -0.6947,0 -1.0969,-0.3602 -1.0969,-1.0805 V 55.293 c 0,-0.6842 0.4023,-1.0804 1.0969,-1.0804 h 8.8488 c 0.7313,0 1.0969,-0.3601 1.0969,-1.0804 v -4.0341 c 0,-0.7203 -0.3656,-1.0804 -1.0969,-1.0804 H 105.598 c -0.6946,0 -1.0969,0.3962 -1.0969,1.0804 v 23.0505 c 0,0.7203 0.4023,1.0804 1.0969,1.0804 h 15.3573 z m 19.308,-16.1714 3.8758,-7.095 c 0.5118,-0.9364 -0.0733,-1.945 -1.2068,-1.945 h -4.1682 c -0.3656,0 -0.6949,0.18 -0.8411,0.5044 l -3.8029,7.239 c -0.0729,0.1082 -0.1828,0.1801 -0.2924,0.1801 h -1.4625 c -0.6584,0 -1.1335,-0.4681 -1.1335,-1.1166 v -5.6904 c 0,-0.6482 -0.4756,-1.1165 -1.1336,-1.1165 h -4.0952 c -0.6583,0 -1.1335,0.4683 -1.1335,1.1165 v 22.9783 c 0,0.6482 0.4752,1.1165 1.1335,1.1165 h 8.0076 c 6.5085,0 9.1412,-2.7371 9.1412,-8.6437 0,-3.3496 -0.8408,-5.6908 -2.7789,-7.0592 -0.1461,-0.1083 -0.1828,-0.2884 -0.1095,-0.4684 z m -6.0333,9.9764 h -1.8648 c -0.6584,0 -1.1335,-0.468 -1.1335,-1.1165 v -2.665 c 0,-0.6484 0.4751,-1.1165 1.1335,-1.1165 h 1.8648 c 1.7549,0 2.6327,0.2161 2.6327,2.4492 0,2.233 -0.8778,2.4488 -2.6327,2.4488" /><path
         inkscape:connector-curvature="0"
         id="path64"
         style="fill:#dedede;fill-opacity:1;fill-rule:evenodd;stroke:none"
         d="m 144.8607,73.1959 h 0.5907 l 0.5275,-1.4566 0.5315,1.4566 h 0.5871 v -2.0346 h -0.379 v 1.6417 l -0.5714,-1.6417 h -0.3307 l -0.5767,1.6417 v -1.6417 h -0.379 z m -1.4359,-0.3394 h -0.6753 v 0.3394 h 1.7609 v -0.3394 h -0.6753 v -1.6952 h -0.4103" /><g
         transform="scale(1.00759,0.99246)"
         id="g66"><path
           inkscape:connector-curvature="0"
           id="path68"
           style="fill:none;stroke:#231f20;stroke-width:6.6098;stroke-linecap:butt;stroke-linejoin:miter;stroke-miterlimit:10;stroke-dasharray:none;stroke-opacity:1"
           d="m 161.7798,38.9702 10.7647,-11.5199 15.1081,24.3618" /><path
           inkscape:connector-curvature="0"
           id="path70"
           style="fill:none;stroke:#ffffff;stroke-width:6.6098;stroke-linecap:butt;stroke-linejoin:miter;stroke-miterlimit:10;stroke-dasharray:none;stroke-opacity:1"
           d="m 161.0081,39.0608 10.7644,-11.5199 15.108,24.3617" /></g></g></g></svg>
